<svg width="215" height="215" viewBox="0 0 215 215" fill="none" xmlns="http://www.w3.org/2000/svg">
<g clip-path="url(#clip0_19_11779)">
<path d="M208.63 45.42C208.63 35.102 200.247 26.723 189.919 26.723C179.589 26.723 171.21 35.102 171.21 45.42C171.21 55.74 179.589 64.119 189.919 64.119C200.248 64.119 208.63 55.74 208.63 45.42ZM171.884 83.217L152.079 122.059C150.87 124.434 148.431 125.928 145.765 125.928C145.146 125.928 144.529 125.846 143.927 125.688L102.691 114.649C101.494 114.327 100.259 114.165 99.021 114.165C94.396 114.165 90.062 116.417 87.41 120.202L50.14 173.393C48.806 175.293 48.089 177.565 48.089 179.891C48.089 186.149 53.171 191.221 59.431 191.221C63.13 191.221 66.595 189.42 68.718 186.393L97.995 144.608C99.321 142.719 101.487 141.588 103.8 141.588C104.421 141.588 105.036 141.672 105.636 141.832L157.917 155.83C159.356 156.215 160.837 156.406 162.323 156.406C168.719 156.406 174.575 152.82 177.481 147.129L202.194 98.651C203.415 96.26 204.046 93.618 204.046 90.932C204.046 81.551 196.427 73.936 187.042 73.936C180.646 73.936 174.787 77.521 171.884 83.217ZM16.906 96.6V127.764H4.74902L29.159 154.854L53.571 127.764H41.417V96.6H16.906ZM76.439 60.186V35.691H107.625V23.543L134.732 47.936L107.625 72.332V60.186H76.439Z" fill="black"/>
<path d="M1 196.592V213.6H18.008M1 18.008V1H18.008L1 18.008ZM213.599 18.008V1H196.591L213.599 18.008ZM196.591 213.6H213.599V196.592L196.591 213.6Z" stroke="black" stroke-width="2" stroke-miterlimit="10" stroke-linecap="round" stroke-linejoin="round"/>
</g>
<defs>
<clipPath id="clip0_19_11779">
<rect width="214.599" height="214.6" fill="white"/>
</clipPath>
</defs>
</svg>
