<svg width="215" height="215" viewBox="0 0 215 215" fill="none" xmlns="http://www.w3.org/2000/svg">
<g clip-path="url(#clip0_19_15165)">
<path d="M103.537 81.2408H132.797V93.2488H106.277C106.216 93.2488 106.158 93.2488 106.099 93.2488C104.911 93.2488 103.726 93.3408 102.554 93.5298H102.552C99.9823 93.7958 97.5663 94.8948 95.6813 96.6608C94.5443 97.6358 93.8903 99.0538 93.8903 100.546C93.8903 101.032 93.9583 101.515 94.0953 101.98C94.6913 103.33 95.7853 104.402 97.1483 104.968V104.97C98.6423 105.745 100.248 106.286 101.908 106.574C102.875 106.769 103.857 106.896 104.844 106.953C105.057 106.961 105.272 106.971 105.483 106.984H111.032V101.088L143.751 113.455L111.032 125.033V118.992L102.53 118.994C98.5303 118.681 94.6433 117.517 91.1353 115.582C88.3173 114.061 85.8953 111.91 84.0533 109.297C82.2483 106.645 81.2643 103.524 81.2193 100.317C81.2173 100.235 81.2173 100.153 81.2173 100.071C81.2173 96.7078 82.3522 93.4418 84.4443 90.8038C86.1103 88.6258 88.1553 86.7648 90.4772 85.3058C92.4982 84.0168 94.6863 83.0108 96.9813 82.3138V82.3098C99.1093 81.6708 101.314 81.3118 103.537 81.2408ZM203.277 97.9948L173.658 90.4438L148.56 65.6118C147.732 64.6838 146.716 63.9398 145.578 63.4338V63.4358C144.232 62.9688 142.836 62.6568 141.42 62.5058C140.109 62.3458 138.797 62.2128 137.48 62.1118L102.167 60.0978C101.589 60.0668 101.009 60.0488 100.429 60.0488C99.2043 60.0488 97.9842 60.1208 96.7692 60.2698C95.3312 60.5568 93.9583 61.1058 92.7183 61.8948L91.3293 62.8108L61.5372 90.1238L16.9762 99.0188L6.03125 113.813L13.8142 130.21L33.3432 136.249C34.8102 144.727 42.1812 150.923 50.8022 150.923C58.2302 150.923 64.8703 146.298 67.4313 139.343H145.912C147.586 147.583 154.85 153.509 163.279 153.509C172.482 153.509 180.154 146.478 180.935 137.327L196.142 133.95L208.247 117.196L203.277 97.9948ZM191.673 127.116L174.448 130.714L172.792 130.784C172.808 131.696 172.966 132.598 173.255 133.462C173.38 134.118 173.445 134.782 173.445 135.444C173.445 141.085 168.931 145.69 163.281 145.811C157.576 145.7 153.013 141.057 153.013 135.368C153.013 134.501 153.12 133.637 153.333 132.8V131.792H61.0892C60.9872 132.858 60.8942 133.925 60.8102 134.995H60.8122C60.4452 137.044 59.4433 138.925 57.9453 140.376C56.0053 142.185 53.4492 143.192 50.7952 143.192C50.5202 143.192 50.2443 143.18 49.9713 143.159C44.7133 142.667 40.6923 138.263 40.6923 132.993C40.6923 132.178 40.7903 131.362 40.9853 130.569L40.5512 130.352L19.2913 123.879L14.8962 114.676L21.4532 105.904L65.4843 97.2728L95.4622 69.2748C96.4482 68.2068 97.8372 67.5988 99.2903 67.5988C99.3903 67.5988 99.4893 67.6028 99.5872 67.6088L136.976 69.7338L140.128 70.0088V70.0068C140.191 70.0048 140.255 70.0028 140.32 70.0028C140.873 70.0028 141.42 70.1098 141.929 70.3168C142.787 70.6348 143.542 71.1708 144.128 71.8678L169.423 97.4698L197.007 104.249L199.962 115.61L191.673 127.116Z" fill="black"/>
<path d="M1 196.592V213.6H18.008M1 18.008V1H18.008L1 18.008ZM213.599 18.008V1H196.591L213.599 18.008ZM196.591 213.6H213.599V196.592L196.591 213.6Z" stroke="black" stroke-width="2" stroke-miterlimit="10" stroke-linecap="round" stroke-linejoin="round"/>
</g>
<defs>
<clipPath id="clip0_19_15165">
<rect width="214.599" height="214.6" fill="white"/>
</clipPath>
</defs>
</svg>
