<svg width="215" height="215" viewBox="0 0 215 215" fill="none" xmlns="http://www.w3.org/2000/svg">
<g clip-path="url(#clip0_19_149)">
<path d="M29.209 65.029L32.039 60.127L62.482 77.701V50.369H68.144V77.701L102.095 58.097L80.335 45.536L83.163 40.636L104.929 53.199V16.42H110.587V53.199L132.353 40.636L135.181 45.536L113.415 58.097L147.372 77.701V50.369H153.028V77.701L183.471 60.127L186.297 65.029L155.862 82.6L177.495 95.09L174.663 99.994L153.03 87.502V126.41L174.663 113.922L177.495 118.817L155.862 131.305L186.3 148.883L183.474 153.789L153.031 136.209V163.541H147.375V136.209L113.418 155.811L135.184 168.375L132.356 173.275L110.59 160.709V197.494H104.932V160.709L83.166 173.275L80.338 168.375L102.098 155.811L68.147 136.209V163.541H62.485V136.209L32.042 153.789L29.212 148.883L59.655 131.305L38.02 118.817L40.852 113.922L62.485 126.41V87.502L40.85 99.994L38.018 95.09L59.653 82.6L29.209 65.029ZM68.145 84.234L107.758 61.365L147.373 84.234V129.681L107.758 152.544L68.145 129.681V84.234Z" fill="black"/>
<path d="M68.1445 84.234L107.758 61.365L147.373 84.234V129.681L107.758 152.544L68.1445 129.681V84.234Z" fill="white"/>
<path d="M1 196.592V213.6H18.008M1 18.008V1H18.008L1 18.008ZM213.598 18.008V1H196.59L213.598 18.008ZM196.59 213.6H213.598V196.592L196.59 213.6Z" stroke="black" stroke-width="2" stroke-miterlimit="10" stroke-linecap="round" stroke-linejoin="round"/>
</g>
<defs>
<clipPath id="clip0_19_149">
<rect width="214.598" height="214.6" fill="white"/>
</clipPath>
</defs>
</svg>
