<svg width="215" height="215" viewBox="0 0 215 215" fill="none" xmlns="http://www.w3.org/2000/svg">
<g clip-path="url(#clip0_19_9917)">
<path d="M31.2382 145.298C38.0112 145.298 43.5082 139.79 43.5082 132.999H49.2812C49.2812 139.79 54.7792 145.298 61.5522 145.298C68.3252 145.298 73.8222 139.79 73.8222 132.999L79.5952 132.96C79.5952 132.972 79.5952 132.987 79.5952 132.999C79.5952 139.79 85.0912 145.298 91.8652 145.298C98.6382 145.298 104.135 139.79 104.135 132.999H109.908C109.908 139.681 115.228 145.136 121.89 145.296V151.081C115.865 150.983 110.29 147.884 107.021 142.813C103.699 147.967 97.9922 151.084 91.8652 151.084C85.7402 151.084 80.0332 147.967 76.7092 142.813C73.3852 147.967 67.6782 151.084 61.5532 151.084C55.4262 151.084 49.7192 147.967 46.3952 142.813C43.0712 147.971 37.3642 151.084 31.2392 151.084V145.298H31.2382ZM59.0992 73.8656L76.5642 43.0926L94.0272 73.8656C95.5072 76.6956 96.2792 79.8426 96.2792 83.0356C96.2792 93.9416 87.4472 102.794 76.5642 102.794C65.6812 102.794 56.8472 93.9416 56.8472 83.0356C56.8472 79.8426 57.6202 76.6956 59.1012 73.8656H59.0992ZM64.0782 76.5807L76.5642 54.5766L89.0502 76.5786C90.0772 78.5746 90.6132 80.7876 90.6132 83.0356C90.6132 90.8086 84.3202 97.1156 76.5642 97.1156C68.8082 97.1156 62.5152 90.8086 62.5152 83.0356C62.5152 80.7876 63.0502 78.5746 64.0772 76.5786L64.0782 76.5807ZM107.724 64.3816H140.343V51.6486L164.382 75.7386L140.343 99.8286V87.0927H107.724V64.3816ZM113.394 70.0596H146.011V65.3567L156.37 75.7396L146.011 86.1227V81.4176H113.394V70.0596ZM173.439 157.679V34.6506C173.439 29.1646 177.884 24.7126 183.355 24.7126C188.83 24.7126 193.271 29.1636 193.271 34.6506V157.678C196.425 160.508 198.23 164.545 198.23 168.787C198.23 177.014 191.564 183.695 183.355 183.695C175.146 183.695 168.484 177.013 168.484 168.787C168.484 164.546 170.285 160.509 173.439 157.679ZM179.107 112.722H187.607V34.6516C187.607 32.2996 185.699 30.3896 183.355 30.3896C181.011 30.3896 179.107 32.2996 179.107 34.6516V112.722ZM121.89 95.6096V177.94H31.2382V35.9926H121.89V55.8656H133.224V24.6396H19.9082V189.296H133.224V95.6096H121.89Z" fill="black"/>
<path d="M64.0786 76.5812L76.5646 54.5771L89.0506 76.5791C90.0776 78.5751 90.6136 80.7881 90.6136 83.0361C90.6136 90.8091 84.3206 97.1161 76.5646 97.1161C68.8086 97.1161 62.5156 90.8091 62.5156 83.0361C62.5156 80.7881 63.0506 78.5751 64.0776 76.5791L64.0786 76.5812ZM113.395 70.0601H146.012V65.3572L156.371 75.7401L146.012 86.1231V81.4181H113.395V70.0601Z" fill="white"/>
<path d="M1 196.678V213.686H18.008M1 18.0939V1.08594H18.008L1 18.0939ZM213.598 18.0939V1.08594H196.59L213.598 18.0939ZM196.59 213.686H213.598V196.678L196.59 213.686Z" stroke="black" stroke-width="2" stroke-miterlimit="10" stroke-linecap="round" stroke-linejoin="round"/>
</g>
<defs>
<clipPath id="clip0_19_9917">
<rect width="214.598" height="214.6" fill="white" transform="translate(0 0.0859375)"/>
</clipPath>
</defs>
</svg>
