<svg width="215" height="215" viewBox="0 0 215 215" fill="none" xmlns="http://www.w3.org/2000/svg">
<g clip-path="url(#clip0_19_8405)">
<path d="M67.8697 33.4416L147.286 33.4436C147.313 34.2566 147.325 35.0706 147.325 35.8846C147.325 57.8516 138.864 78.9746 123.698 94.8706L116.632 102.285C115.374 103.603 114.667 105.355 114.667 107.18C114.667 109.002 115.374 110.754 116.632 112.073L123.698 119.491C138.864 135.391 147.325 156.507 147.325 178.471C147.325 179.287 147.313 180.102 147.286 180.916H67.8697C67.8467 180.102 67.8367 179.287 67.8367 178.471C67.8367 156.506 76.2957 135.391 91.4577 119.491L98.5277 112.073C99.7837 110.755 100.487 109.003 100.487 107.18C100.487 105.357 99.7837 103.604 98.5277 102.285L91.4577 94.8706C76.2947 78.9756 67.8357 57.8526 67.8357 35.8856C67.8357 35.0706 67.8457 34.2566 67.8687 33.4446L67.8697 33.4416ZM152.965 33.4436H158.635V180.917H152.965C152.988 180.108 152.998 179.294 152.998 178.485C152.998 155.055 143.974 132.532 127.808 115.573L124.269 111.87L120.734 108.157C120.482 107.895 120.341 107.546 120.341 107.18C120.341 106.817 120.482 106.465 120.734 106.2L124.269 102.495C142.603 85.1336 152.988 60.9986 152.988 35.7486C152.988 34.9816 152.976 34.2136 152.965 33.4416V33.4436ZM62.1957 33.4436H56.5237V180.917H62.1897C62.1687 180.108 62.1607 179.294 62.1607 178.485C62.1607 155.055 71.1787 132.532 87.3497 115.573L90.8847 111.87L94.4237 108.157C94.6737 107.895 94.8147 107.546 94.8147 107.18C94.8147 106.817 94.6737 106.465 94.4237 106.2L90.8847 102.495C72.5527 85.1336 62.1647 60.9986 62.1647 35.7486C62.1647 34.9816 62.1737 34.2136 62.1957 33.4436ZM50.8477 22.0986H164.309V192.257H50.8477V22.0986Z" fill="black"/>
<path d="M67.8699 33.4424L147.286 33.4444C147.313 34.2574 147.325 35.0714 147.325 35.8854C147.325 57.8524 138.864 78.9754 123.698 94.8714L116.632 102.285C115.374 103.603 114.667 105.355 114.667 107.18C114.667 109.002 115.374 110.754 116.632 112.073L123.698 119.491C138.864 135.391 147.325 156.507 147.325 178.471C147.325 179.287 147.313 180.102 147.286 180.916H67.8699C67.8469 180.102 67.8369 179.287 67.8369 178.471C67.8369 156.506 76.2959 135.391 91.4579 119.491L98.5279 112.073C99.7839 110.755 100.487 109.003 100.487 107.18C100.487 105.357 99.7839 103.604 98.5279 102.285L91.4579 94.8714C76.2949 78.9764 67.8359 57.8534 67.8359 35.8864C67.8359 35.0714 67.8459 34.2574 67.8689 33.4454L67.8699 33.4424ZM152.965 33.4444H158.635V180.917H152.965C152.988 180.108 152.998 179.294 152.998 178.485C152.998 155.055 143.974 132.532 127.808 115.573L124.269 111.87L120.734 108.157C120.482 107.895 120.341 107.546 120.341 107.18C120.341 106.817 120.482 106.465 120.734 106.2L124.269 102.495C142.603 85.1344 152.988 60.9994 152.988 35.7494C152.988 34.9824 152.976 34.2144 152.965 33.4424" fill="white"/>
<path d="M1 196.679V213.687H18.008M1 18.0949V1.08691H18.008L1 18.0949ZM213.599 18.0949V1.08691H196.591L213.599 18.0949ZM196.591 213.687H213.599V196.679L196.591 213.687Z" stroke="black" stroke-width="2" stroke-miterlimit="10" stroke-linecap="round" stroke-linejoin="round"/>
</g>
<defs>
<clipPath id="clip0_19_8405">
<rect width="214.599" height="214.6" fill="white" transform="translate(0 0.0869141)"/>
</clipPath>
</defs>
</svg>
