<svg width="145" height="144" viewBox="0 0 145 144" fill="none" xmlns="http://www.w3.org/2000/svg">
<path d="M94.76 27.6192C78.6319 27.1411 75.4443 41.543 75.1379 51.5909C74.2991 51.4316 73.431 51.3446 72.5338 51.3446C70.9436 51.3446 69.4336 51.6127 68.0039 52.098C66.8879 51.0259 66.3554 49.6132 66.2168 47.8963C65.7718 42.9411 73.628 39.5507 73.8468 32.3208C74.1021 24.7867 70.4111 18.9549 61.3003 17.3466C53.0211 15.8905 35.58 18.0783 34.8578 42.5861C34.3837 58.6035 48.885 61.7838 59.0098 62.0663C58.7836 63.0516 58.645 64.073 58.645 65.1307C58.645 66.7897 58.9514 68.369 59.513 69.8468C58.4189 70.9552 56.9966 71.4768 55.2605 71.6362C50.2856 72.0853 46.8718 64.2686 39.5774 64.0368C32.0057 63.7978 26.1335 67.4779 24.5142 76.5262C23.0553 84.7268 25.2364 102.048 49.9209 102.78C66.1657 103.258 69.2949 88.6461 69.5429 78.5908C70.5204 78.7937 71.4979 78.9168 72.5338 78.9168C73.9635 78.9168 75.3567 78.6995 76.6697 78.2938C77.793 79.366 78.3255 80.7859 78.4641 82.5028C78.9382 87.458 71.0529 90.8556 70.8268 98.0783C70.5788 105.612 74.2989 111.444 83.3805 113.052C91.6525 114.509 109.101 112.321 109.823 87.8129C110.297 71.9694 96.1241 68.6805 86.0066 68.34C86.2619 67.3113 86.4006 66.2391 86.4006 65.1307C86.4006 63.4065 86.0942 61.7693 85.5034 60.248C86.5392 59.3497 87.8521 58.9078 89.4204 58.7629C94.3952 58.3137 97.8018 66.1304 105.104 66.3623C112.675 66.6013 118.547 62.9212 120.167 53.8802C121.648 45.6722 119.437 28.3509 94.76 27.6192V27.6192ZM72.3368 68.8471C70.3308 68.8471 68.6749 67.2171 68.6749 65.1959C68.6749 63.1892 70.3308 61.5447 72.3368 61.5447C74.3792 61.5447 76.0278 63.1892 76.0278 65.1959C76.0278 67.2171 74.3792 68.8471 72.3368 68.8471Z" fill="#FF5A6E"/>
</svg>
