<svg width="145" height="144" viewBox="0 0 145 144" fill="none" xmlns="http://www.w3.org/2000/svg">
<path d="M12.241 57.4468L3.02081 76.7388L3.18127 76.8329L15.5016 77.8907L22.7378 58.3523L12.241 57.4468Z" fill="#FF5A6E"/>
<path d="M22.2927 36.4307L13.9114 53.9549L24.0434 54.8242L30.5938 37.1408L22.2927 36.4307Z" fill="#FF5A6E"/>
<path d="M29.1933 22L23.9634 32.9319L31.8923 33.6128L35.9843 22.5796L29.1933 22Z" fill="#FF5A6E"/>
<path d="M135.313 57.4468L144.533 76.7388L144.366 76.8329L132.053 77.8907L124.809 58.3523L135.313 57.4468Z" fill="#FF5A6E"/>
<path d="M125.254 36.4307L133.636 53.9549L123.511 54.8242L116.96 37.1408L125.254 36.4307Z" fill="#FF5A6E"/>
<path d="M118.361 22L123.584 32.9319L115.655 33.6128L111.577 22.5796L118.361 22Z" fill="#FF5A6E"/>
<path d="M112.518 82.9832C111.738 81.2517 109.681 80.4694 107.937 81.2373L95.668 86.6706L84.4563 79.5348C84.6751 78.6582 84.8064 77.7599 84.8064 76.8254C84.8064 75.8836 84.6751 74.9853 84.4563 74.116L95.668 66.9804L107.937 72.4137C108.397 72.6165 108.878 72.7106 109.345 72.7106C110.673 72.7106 111.942 71.9499 112.518 70.6677C113.299 68.929 112.511 66.9006 110.76 66.1254L102.649 62.525L110.315 57.6495C111.927 56.6208 112.394 54.491 111.366 52.8828C110.323 51.289 108.178 50.818 106.573 51.8467L98.8994 56.7367L99.0016 47.9058C99.0235 46.0005 97.4842 44.4502 95.573 44.4284C93.6911 44.4284 92.0791 45.9352 92.0645 47.8333L91.9185 61.1848L80.7143 68.3132C79.693 67.5019 78.5186 66.8572 77.2494 66.437V53.2087L88.4755 45.8846C90.0803 44.8414 90.5254 42.7117 89.475 41.1251C88.4246 39.5314 86.2799 39.0894 84.6751 40.1326L77.2494 44.9718V35.9308C77.2494 34.0255 75.6957 32.4824 73.7772 32.4824C71.8661 32.4824 70.3123 34.0255 70.3123 35.9308V44.9718L62.8793 40.1326C61.2891 39.0894 59.1372 39.5314 58.0868 41.1251C57.0364 42.7117 57.4739 44.8414 59.0787 45.8846L70.3123 53.2087V66.437C69.0431 66.8572 67.8687 67.5019 66.8401 68.3132L55.6357 61.1848L55.4972 47.8333C55.4753 45.9352 53.8996 44.414 51.9885 44.4284C50.0773 44.4502 48.5382 46.0005 48.5601 47.9058L48.655 56.7367L40.9885 51.8467C39.3764 50.818 37.2318 51.289 36.2033 52.8828C35.1602 54.491 35.6343 56.6208 37.2464 57.6495L44.9129 62.525L36.7942 66.1254C35.0435 66.9006 34.2629 68.929 35.0434 70.6677C35.6197 71.9499 36.889 72.7106 38.2093 72.7106C38.6834 72.7106 39.1648 72.6165 39.6244 72.4137L51.8937 66.9804L63.1053 74.116C62.8792 74.9853 62.7479 75.8836 62.7479 76.8254C62.7479 77.7599 62.8792 78.6582 63.1053 79.5348L51.8937 86.6706L39.6244 81.2373C37.8737 80.4694 35.8166 81.2517 35.0434 82.9832C34.2629 84.7218 35.0435 86.7575 36.7942 87.5327L44.9129 91.1186L37.2464 96.0086C35.6343 97.0301 35.1602 99.16 36.2033 100.768C36.8598 101.79 37.9759 102.355 39.1211 102.355C39.7557 102.355 40.405 102.174 40.9885 101.811L48.655 96.9214L48.5601 105.738C48.5382 107.643 50.0773 109.208 51.9885 109.223C51.9958 109.223 52.0177 109.223 52.0323 109.223C53.9216 109.223 55.4753 107.708 55.4972 105.818L55.6357 92.4734L66.8401 85.3303C67.8687 86.1562 69.0431 86.7938 70.3123 87.214V100.435L59.0787 107.766C57.4739 108.81 57.0364 110.939 58.0868 112.533C58.7506 113.54 59.852 114.084 60.9826 114.084C61.6392 114.084 62.2957 113.902 62.8793 113.518L70.3123 108.679V117.727C70.3123 119.618 71.8661 121.169 73.7772 121.169C75.6957 121.169 77.2494 119.618 77.2494 117.727V108.679L84.6751 113.518C85.2587 113.902 85.9153 114.084 86.5718 114.084C87.7024 114.084 88.8039 113.54 89.475 112.533C90.5254 110.939 90.0803 108.81 88.4755 107.766L77.2494 100.435V87.214C78.5186 86.7938 79.693 86.1562 80.7143 85.3303L91.9185 92.4734L92.0645 105.818C92.0791 107.708 93.6329 109.223 95.5294 109.223C95.544 109.223 95.5512 109.223 95.573 109.223C97.4842 109.208 99.0235 107.643 99.0016 105.738L98.8994 96.9214L106.573 101.811C107.149 102.174 107.791 102.355 108.441 102.355C109.586 102.355 110.702 101.79 111.366 100.768C112.394 99.16 111.935 97.0301 110.315 96.0086L102.649 91.1186L110.76 87.5327C112.511 86.7575 113.299 84.7218 112.518 82.9832V82.9832Z" fill="#FF5A6E"/>
</svg>
