<svg width="145" height="144" viewBox="0 0 145 144" fill="none" xmlns="http://www.w3.org/2000/svg">
<path d="M131.379 70.0592H120.833L102.019 48H60.1701L39.5138 68.3568L20.1558 51.6729C14.252 46.6018 7.06434 48.9128 4.09065 50.847C2.47325 51.9047 2.00908 54.0708 3.06801 55.6936C4.11968 57.3091 6.29555 57.7727 7.9202 56.715C7.96372 56.686 12.1414 54.0273 15.572 56.9831L30.7596 70.0592H13.621C6.09246 70.0592 0 76.4198 0 84.2655V86.9676C0 94.8133 6.09246 101.167 13.621 101.167H18.727C20.4024 107.759 26.3643 112.642 33.4867 112.642C40.609 112.642 46.5782 107.759 48.2536 101.167H99.0166C100.692 107.759 106.654 112.642 113.776 112.642C120.899 112.642 126.861 107.759 128.536 101.167H131.379C138.9 101.167 145 94.8133 145 86.9676V84.2655C145 76.4198 138.9 70.0592 131.379 70.0592V70.0592Z" fill="#FF5A6E"/>
</svg>
